CalSansUI-Medium.ufo
<glyph name="exclam" format="2">
  <advance width="249.39999999999998"/>
  <unicode hex="0021"/>
  <outline>
    <contour>
      <point x="87.175" y="176.25" type="line"/>
      <point x="164.075" y="176.25" type="line"/>
      <point x="182.5" y="550.75" type="line"/>
      <point x="182.5" y="700.0" type="line"/>
      <point x="68.75" y="700.0" type="line"/>
      <point x="68.75" y="550.75" type="line"/>
    </contour>
    <component base="period"/>
  </outline>
</glyph>
<glyph name="numbersign" format="2">
  <advance width="750.35"/>
  <unicode hex="0023"/>
  <outline>
    <contour>
      <point x="360.425" y="0.0" type="line"/>
      <point x="452.17499999999995" y="0.0" type="line"/>
      <point x="511.17499999999995" y="235.0" type="line"/>
      <point x="516.225" y="257.475" type="line"/>
      <point x="575.2249999999999" y="490.95" type="line"/>
      <point x="582.175" y="515.0" type="line"/>
      <point x="636.175" y="730.0" type="line"/>
      <point x="542.425" y="730.0" type="line"/>
      <point x="489.425" y="515.0" type="line"/>
      <point x="487.375" y="492.0" type="line"/>
      <point x="428.375" y="257.0" type="line"/>
      <point x="419.425" y="236.0" type="line"/>
    </contour>
    <contour>
      <point x="105.17500000000001" y="0.0" type="line"/>
      <point x="195.35" y="0.0" type="line"/>
      <point x="255.35" y="237.0" type="line"/>
      <point x="256.4" y="258.0" type="line"/>
      <point x="315.4" y="492.0" type="line"/>
      <point x="325.35" y="514.0" type="line"/>
      <point x="379.35" y="730.0" type="line"/>
      <point x="287.17499999999995" y="730.0" type="line"/>
      <point x="233.175" y="515.0" type="line"/>
      <point x="228.125" y="492.0" type="line"/>
      <point x="170.65" y="261.625" type="line"/>
      <point x="163.175" y="235.0" type="line"/>
    </contour>
    <contour>
      <point x="61.675" y="202.025" type="line"/>
      <point x="673.675" y="202.025" type="line"/>
      <point x="673.675" y="286.975" type="line"/>
      <point x="61.675" y="286.975" type="line"/>
    </contour>
    <contour>
      <point x="76.675" y="459.025" type="line"/>
      <point x="688.675" y="459.025" type="line"/>
      <point x="688.675" y="543.975" type="line"/>
      <point x="76.675" y="543.975" type="line"/>
    </contour>
  </outline>
</glyph>
<glyph name="slash" format="2">
  <advance width="497.025"/>
  <unicode hex="002F"/>
  <outline>
    <contour>
      <point x="53.675" y="-13.0" type="line"/>
      <point x="162.825" y="-13.0" type="line"/>
      <point x="438.35" y="740.0" type="line"/>
      <point x="327.2" y="740.0" type="line"/>
    </contour>
  </outline>
</glyph>
<glyph name="E" format="2">
  <advance width="555.2249999999999"/>
  <unicode hex="0045"/>
  <anchor x="304.75" y="0.0" name="bottom"/>
  <anchor x="393.75" y="0.0" name="ogonek"/>
  <anchor x="294.75" y="700.0" name="top"/>
  <outline>
    <contour>
      <point x="81.05000000000001" y="0.0" type="line"/>
      <point x="485.175" y="0.0" type="line"/>
      <point x="485.175" y="104.025" type="line"/>
      <point x="190.60000000000002" y="104.025" type="line"/>
      <point x="190.60000000000002" y="303.275" type="line"/>
      <point x="478.175" y="303.275" type="line"/>
      <point x="478.175" y="407.3" type="line"/>
      <point x="190.60000000000002" y="407.3" type="line"/>
      <point x="190.60000000000002" y="595.975" type="line"/>
      <point x="483.175" y="595.975" type="line"/>
      <point x="483.175" y="700.0" type="line"/>
      <point x="81.05000000000001" y="700.0" type="line"/>
    </contour>
  </outline>
</glyph>
<glyph name="H" format="2">
  <advance width="725.2750000000001"/>
  <unicode hex="0048"/>
  <anchor x="365.0" y="0.0" name="bottom"/>
  <anchor x="534.675" y="0.0" name="ogonek"/>
  <anchor x="365.0" y="700.0" name="top"/>
  <outline>
    <contour>
      <point x="81.05000000000001" y="0.0" type="line"/>
      <point x="190.60000000000002" y="0.0" type="line"/>
      <point x="190.60000000000002" y="311.275" type="line"/>
      <point x="534.675" y="311.275" type="line"/>
      <point x="534.675" y="0.0" type="line"/>
      <point x="644.225" y="0.0" type="line"/>
      <point x="644.225" y="700.0" type="line"/>
      <point x="534.675" y="700.0" type="line"/>
      <point x="534.675" y="415.3" type="line"/>
      <point x="190.60000000000002" y="415.3" type="line"/>
      <point x="190.60000000000002" y="700.0" type="line"/>
      <point x="81.05000000000001" y="700.0" type="line"/>
    </contour>
  </outline>
</glyph>
<glyph name="J" format="2">
  <advance width="457.225"/>
  <unicode hex="004A"/>
  <anchor x="184.6" y="0.0" name="bottom"/>
  <anchor x="247.6" y="0.0" name="ogonek"/>
  <anchor x="325.875" y="700.0" name="top"/>
  <outline>
    <contour>
      <point x="184.6" y="-12.475000000000001" type="curve" smooth="yes"/>
      <point x="310.42499999999995" y="-10.9"/>
      <point x="381.17499999999995" y="58.099999999999994"/>
      <point x="381.17499999999995" y="192.65" type="curve" smooth="yes"/>
      <point x="381.17499999999995" y="700.0" type="line"/>
      <point x="270.575" y="700.0" type="line"/>
      <point x="270.575" y="188.375" type="line" smooth="yes"/>
      <point x="270.575" y="126.1"/>
      <point x="234.375" y="90.225"/>
      <point x="183.35" y="90.225" type="curve" smooth="yes"/>
      <point x="149.4" y="90.225"/>
      <point x="122.35" y="103.44999999999999"/>
      <point x="103.2" y="127.075" type="curve"/>
      <point x="33.05" y="41.175" type="line"/>
      <point x="75.275" y="2.75"/>
      <point x="126.175" y="-13.0"/>
    </contour>
  </outline>
</glyph>
<glyph name="Q" format="2">
  <advance width="785.6"/>
  <unicode hex="0051"/>
  <anchor x="390.0" y="0.0" name="bottom"/>
  <anchor x="383.0" y="338.0" name="center"/>
  <anchor x="487.9" y="0.0" name="ogonek"/>
  <anchor x="390.0" y="700.0" name="top"/>
  <anchor x="597.375" y="700.0" name="topright"/>
  <outline>
    <contour>
      <point x="599.5250000000001" y="-57.525000000000006" type="line"/>
      <point x="717.4000000000001" y="-57.525000000000006" type="line"/>
      <point x="595.15" y="126.375" type="line"/>
      <point x="589.625" y="148.375" type="line"/>
      <point x="515.3499999999999" y="257.475" type="line"/>
      <point x="397.475" y="257.475" type="line"/>
      <point x="513.725" y="83.125" type="line"/>
      <point x="517.775" y="63.125" type="line"/>
    </contour>
    <component base="O"/>
  </outline>
</glyph>
<glyph name="asciicircum" format="2">
  <advance width="600.0"/>
  <unicode hex="005E"/>
  <outline>
    <contour>
      <point x="97.25" y="474.0" type="line"/>
      <point x="216.77499999999998" y="474.0" type="line"/>
      <point x="300.525" y="639.0" type="line"/>
      <point x="305.0" y="639.0" type="line"/>
      <point x="386.7" y="474.0" type="line"/>
      <point x="502.75" y="474.0" type="line"/>
      <point x="361.42499999999995" y="713.0" type="line"/>
      <point x="244.625" y="713.0" type="line"/>
    </contour>
  </outline>
</glyph>
<glyph name="c" format="2">
  <advance width="536.375"/>
  <unicode hex="0063"/>
  <anchor x="298.175" y="0.0" name="bottom"/>
  <anchor x="383.725" y="0.0" name="ogonek"/>
  <anchor x="299.6" y="497.125" name="top"/>
  <outline>
    <contour>
      <point x="294.55" y="-13.0" type="curve" smooth="yes"/>
      <point x="389.475" y="-13.0"/>
      <point x="457.0" y="22.375"/>
      <point x="504.95" y="83.8" type="curve"/>
      <point x="427.1" y="147.0" type="line"/>
      <point x="398.325" y="108.125"/>
      <point x="358.70000000000005" y="84.275"/>
      <point x="302.35" y="84.275" type="curve" smooth="yes"/>
      <point x="208.375" y="84.275"/>
      <point x="144.025" y="152.825"/>
      <point x="144.025" y="249.27499999999998" type="curve" smooth="yes"/>
      <point x="144.025" y="344.20000000000005"/>
      <point x="205.325" y="412.32500000000005"/>
      <point x="298.825" y="412.32500000000005" type="curve" smooth="yes"/>
      <point x="358.45000000000005" y="412.32500000000005"/>
      <point x="398.5" y="387.475"/>
      <point x="427.05" y="347.125" type="curve"/>
      <point x="505.475" y="409.275" type="line"/>
      <point x="457.475" y="474.70000000000005"/>
      <point x="384.15" y="510.59999999999997"/>
      <point x="291.55" y="509.6" type="curve" smooth="yes"/>
      <point x="139.0" y="507.6"/>
      <point x="37.900000000000006" y="390.65"/>
      <point x="37.900000000000006" y="249.27499999999998" type="curve" smooth="yes"/>
      <point x="37.900000000000006" y="107.85"/>
      <point x="141.47500000000002" y="-13.0"/>
    </contour>
  </outline>
</glyph>
<glyph name="v" format="2">
  <advance width="546.0"/>
  <unicode hex="0076"/>
  <anchor x="273.95" y="0.0" name="bottom"/>
  <anchor x="273.95" y="497.125" name="top"/>
  <outline>
    <contour>
      <point x="214.125" y="0.0" type="line"/>
      <point x="331.825" y="0.0" type="line"/>
      <point x="529.95" y="497.125" type="line"/>
      <point x="407.6" y="497.125" type="line"/>
      <point x="306.775" y="194.425" type="line" smooth="yes"/>
      <point x="298.20000000000005" y="170.225"/>
      <point x="285.57500000000005" y="131.025"/>
      <point x="279.0" y="97.925" type="curve"/>
      <point x="271.0" y="97.925" type="line"/>
      <point x="264.42499999999995" y="131.025"/>
      <point x="250.275" y="169.7"/>
      <point x="241.7" y="194.425" type="curve" smooth="yes"/>
      <point x="139.825" y="497.125" type="line"/>
      <point x="16.05" y="497.125" type="line"/>
    </contour>
  </outline>
</glyph>
<glyph name="cent" format="2">
  <advance width="501.625"/>
  <unicode hex="00A2"/>
  <anchor x="272.6" y="495.75" name="_TopCurrency"/>
  <outline>
    <contour>
      <point x="278.4" y="30.0" type="curve" smooth="yes"/>
      <point x="359.2" y="30.0"/>
      <point x="424.25" y="62.849999999999994"/>
      <point x="470.2" y="119.9" type="curve"/>
      <point x="400.04999999999995" y="180.15" type="line"/>
      <point x="371.9" y="143.9"/>
      <point x="333.175" y="123.475"/>
      <point x="280.5" y="123.475" type="curve" smooth="yes"/>
      <point x="193.72500000000002" y="123.475"/>
      <point x="135.175" y="184.675"/>
      <point x="135.175" y="275.375" type="curve" smooth="yes"/>
      <point x="135.175" y="366.07500000000005"/>
      <point x="193.2" y="430.175"/>
      <point x="278.4" y="430.175" type="curve" smooth="yes"/>
      <point x="328.125" y="430.175"/>
      <point x="365.95" y="410.175"/>
      <point x="395.20000000000005" y="370.025" type="curve"/>
      <point x="468.825" y="434.54999999999995" type="line"/>
      <point x="422.35" y="490.7"/>
      <point x="357.25" y="524.175"/>
      <point x="276.825" y="523.65" type="curve" smooth="yes"/>
      <point x="135.275" y="522.6"/>
      <point x="32.849999999999994" y="412.625"/>
      <point x="32.849999999999994" y="275.375" type="curve" smooth="yes"/>
      <point x="32.849999999999994" y="138.125"/>
      <point x="136.325" y="30.0"/>
    </contour>
    <component base="verticalTopCurrencycomb" xOffset="272.6" yOffset="-157.25"/>
    <component base="verticalBottomCurrencycomb" xOffset="272.6" yOffset="2.0"/>
  </outline>
</glyph>
<glyph name="copyright" format="2">
  <advance width="898.375"/>
  <unicode hex="00A9"/>
  <outline>
    <contour>
      <point x="448.95000000000005" y="-50.0" type="curve" smooth="yes"/>
      <point x="671.475" y="-50.0"/>
      <point x="848.65" y="129.0"/>
      <point x="848.65" y="352.0" type="curve" smooth="yes"/>
      <point x="848.65" y="575.05"/>
      <point x="671.95" y="753.5250000000001"/>
      <point x="448.95000000000005" y="753.5250000000001" type="curve" smooth="yes"/>
      <point x="226.425" y="753.5250000000001"/>
      <point x="49.725" y="575.05"/>
      <point x="49.725" y="352.0" type="curve" smooth="yes"/>
      <point x="49.725" y="129.0"/>
      <point x="226.425" y="-50.0"/>
    </contour>
    <contour>
      <point x="448.95000000000005" y="20.175" type="curve" smooth="yes"/>
      <point x="267.275" y="20.175"/>
      <point x="125.32499999999999" y="169.325"/>
      <point x="125.32499999999999" y="352.0" type="curve" smooth="yes"/>
      <point x="125.32499999999999" y="533.675"/>
      <point x="267.275" y="682.825"/>
      <point x="448.95000000000005" y="682.825" type="curve" smooth="yes"/>
      <point x="631.625" y="682.825"/>
      <point x="773.05" y="533.675"/>
      <point x="773.05" y="352.0" type="curve" smooth="yes"/>
      <point x="773.05" y="169.325"/>
      <point x="631.1500000000001" y="20.175"/>
    </contour>
    <contour>
      <point x="454.1" y="106.125" type="curve" smooth="yes"/>
      <point x="537.95" y="106.125"/>
      <point x="600.425" y="137.075"/>
      <point x="645.325" y="189.02499999999998" type="curve"/>
      <point x="580.475" y="239.225" type="line"/>
      <point x="550.175" y="206.775"/>
      <point x="514.4" y="185.77499999999998"/>
      <point x="458.95000000000005" y="185.77499999999998" type="curve" smooth="yes"/>
      <point x="366.2" y="185.77499999999998"/>
      <point x="296.29999999999995" y="258.375"/>
      <point x="296.29999999999995" y="354.525" type="curve" smooth="yes"/>
      <point x="296.29999999999995" y="450.20000000000005"/>
      <point x="361.575" y="523.85"/>
      <point x="456.475" y="523.85" type="curve" smooth="yes"/>
      <point x="503.825" y="523.85"/>
      <point x="544.2249999999999" y="508.85"/>
      <point x="573.575" y="473.775" type="curve"/>
      <point x="639.85" y="523.6" type="line"/>
      <point x="597.275" y="576.5999999999999"/>
      <point x="535.325" y="603.9749999999999"/>
      <point x="455.525" y="603.9749999999999" type="curve" smooth="yes"/>
      <point x="307.675" y="603.9749999999999"/>
      <point x="207.22500000000002" y="493.35"/>
      <point x="207.22500000000002" y="354.525" type="curve" smooth="yes"/>
      <point x="207.22500000000002" y="216.225"/>
      <point x="306.35" y="106.125"/>
    </contour>
  </outline>
</glyph>
<glyph name="registered" format="2">
  <advance width="592.9000000000001"/>
  <unicode hex="00AE"/>
  <outline>
    <contour>
      <point x="295.95" y="230.0" type="curve" smooth="yes"/>
      <point x="433.95000000000005" y="230.0"/>
      <point x="541.7" y="341.0"/>
      <point x="541.7" y="479.0" type="curve" smooth="yes"/>
      <point x="541.7" y="617.0"/>
      <point x="433.95000000000005" y="727.0"/>
      <point x="295.95" y="727.0" type="curve" smooth="yes"/>
      <point x="158.95" y="727.0"/>
      <point x="51.2" y="617.0"/>
      <point x="51.2" y="479.0" type="curve" smooth="yes"/>
      <point x="51.2" y="341.0"/>
      <point x="158.95" y="230.0"/>
    </contour>
    <contour>
      <point x="295.95" y="279.975" type="curve" smooth="yes"/>
      <point x="187.65" y="279.975"/>
      <point x="104.125" y="369.7"/>
      <point x="104.125" y="479.0" type="curve" smooth="yes"/>
      <point x="104.125" y="587.3"/>
      <point x="187.65" y="677.025"/>
      <point x="295.95" y="677.025" type="curve" smooth="yes"/>
      <point x="405.25" y="677.025"/>
      <point x="488.775" y="587.3"/>
      <point x="488.775" y="479.0" type="curve" smooth="yes"/>
      <point x="488.775" y="369.7"/>
      <point x="405.25" y="279.975"/>
    </contour>
    <contour>
      <point x="204.675" y="350.0" type="line"/>
      <point x="249.175" y="350.0" type="line"/>
      <point x="249.175" y="456.775" type="line"/>
      <point x="278.425" y="456.775" type="line"/>
      <point x="283.0" y="447.725"/>
      <point x="286.05" y="441.67499999999995"/>
      <point x="290.05" y="435.675" type="curve" smooth="yes"/>
      <point x="347.1" y="350.0" type="line"/>
      <point x="399.025" y="350.0" type="line"/>
      <point x="325.45" y="460.25" type="line"/>
      <point x="364.4" y="466.625"/>
      <point x="392.7" y="492.1"/>
      <point x="392.7" y="534.675" type="curve" smooth="yes"/>
      <point x="392.7" y="584.15"/>
      <point x="354.075" y="610.5250000000001"/>
      <point x="299.75" y="610.5250000000001" type="curve" smooth="yes"/>
      <point x="204.675" y="610.5250000000001" type="line"/>
    </contour>
    <contour>
      <point x="249.175" y="495.325" type="line"/>
      <point x="249.175" y="572.025" type="line"/>
      <point x="294.325" y="572.025" type="line" smooth="yes"/>
      <point x="326.57500000000005" y="572.025"/>
      <point x="346.775" y="561.5"/>
      <point x="346.775" y="534.2" type="curve" smooth="yes"/>
      <point x="346.775" y="505.84999999999997"/>
      <point x="326.57500000000005" y="495.325"/>
      <point x="294.325" y="495.325" type="curve" smooth="yes"/>
    </contour>
  </outline>
</glyph>
<glyph name="ordmasculine" format="2">
  <advance width="508.95"/>
  <unicode hex="00BA"/>
  <outline>
    <contour>
      <point x="254.475" y="312.0" type="curve" smooth="yes"/>
      <point x="374.475" y="312.0"/>
      <point x="456.8" y="403.1"/>
      <point x="456.8" y="512.0" type="curve" smooth="yes"/>
      <point x="456.8" y="621.9"/>
      <point x="374.475" y="713.0"/>
      <point x="254.475" y="713.0" type="curve" smooth="yes"/>
      <point x="134.47500000000002" y="713.0"/>
      <point x="52.15" y="621.9"/>
      <point x="52.15" y="512.0" type="curve" smooth="yes"/>
      <point x="52.15" y="403.1"/>
      <point x="134.47500000000002" y="312.0"/>
    </contour>
    <contour>
      <point x="254.475" y="391.85" type="curve" smooth="yes"/>
      <point x="184.3" y="391.85"/>
      <point x="139.9" y="444.25"/>
      <point x="139.9" y="512.0" type="curve" smooth="yes"/>
      <point x="139.9" y="579.2249999999999"/>
      <point x="184.3" y="633.15"/>
      <point x="254.475" y="633.15" type="curve" smooth="yes"/>
      <point x="323.65" y="633.15"/>
      <point x="368.05" y="579.2249999999999"/>
      <point x="368.05" y="512.0" type="curve" smooth="yes"/>
      <point x="368.05" y="444.25"/>
      <point x="323.65" y="391.85"/>
    </contour>
    <contour>
      <point x="71.725" y="180.10000000000002" type="line"/>
      <point x="437.225" y="180.10000000000002" type="line"/>
      <point x="437.225" y="256.0" type="line"/>
      <point x="71.725" y="256.0" type="line"/>
    </contour>
  </outline>
</glyph>
<glyph name="multiply" format="2">
  <advance width="596.0"/>
  <unicode hex="00D7"/>
  <outline>
    <contour>
      <point x="432.025" y="80.825" type="line"/>
      <point x="493.275" y="141.64999999999998" type="line"/>
      <point x="156.27499999999998" y="479.175" type="line"/>
      <point x="95.025" y="417.875" type="line"/>
    </contour>
    <contour>
      <point x="155.8" y="79.875" type="line"/>
      <point x="492.32500000000005" y="417.875" type="line"/>
      <point x="432.025" y="479.65" type="line"/>
      <point x="95.5" y="141.64999999999998" type="line"/>
    </contour>
  </outline>
</glyph>
<glyph name="divide" format="2">
  <advance width="596.0"/>
  <unicode hex="00F7"/>
  <outline>
    <contour>
      <point x="73.92500000000001" y="270.975" type="line"/>
      <point x="515.425" y="270.975" type="line"/>
      <point x="515.425" y="361.025" type="line"/>
      <point x="73.92500000000001" y="361.025" type="line"/>
    </contour>
    <component base="tittle" xScale="0.95" yScale="0.95" xOffset="174.85000000000002" yOffset="-477.6"/>
    <component base="tittle" xScale="0.95" yScale="0.95" xOffset="176.85" yOffset="-140.525"/>
  </outline>
</glyph>
<glyph name="florin" format="2">
  <advance width="616.85"/>
  <unicode hex="0192"/>
  <outline>
    <contour>
      <point x="46.425" y="1.0" type="line"/>
      <point x="75.425" y="-3.0"/>
      <point x="105.425" y="-7.0"/>
      <point x="134.425" y="-7.0" type="curve" smooth="yes"/>
      <point x="228.425" y="-7.0"/>
      <point x="295.875" y="33.0"/>
      <point x="326.875" y="172.0" type="curve" smooth="yes"/>
      <point x="399.875" y="504.0" type="line" smooth="yes"/>
      <point x="419.65" y="593.775"/>
      <point x="455.425" y="610.475"/>
      <point x="509.42499999999995" y="610.475" type="curve" smooth="yes"/>
      <point x="529.375" y="610.475"/>
      <point x="550.425" y="607.0"/>
      <point x="571.425" y="603.475" type="curve"/>
      <point x="571.425" y="700.0" type="line"/>
      <point x="551.0999999999999" y="704.575"/>
      <point x="528.2" y="707.0"/>
      <point x="503.675" y="707.0" type="curve" smooth="yes"/>
      <point x="402.67499999999995" y="707.0"/>
      <point x="329.975" y="661.0"/>
      <point x="298.975" y="521.0" type="curve" smooth="yes"/>
      <point x="225.975" y="189.0" type="line" smooth="yes"/>
      <point x="206.725" y="101.85"/>
      <point x="169.425" y="88.525"/>
      <point x="123.425" y="88.525" type="curve" smooth="yes"/>
      <point x="97.42500000000001" y="88.525"/>
      <point x="72.425" y="91.525"/>
      <point x="46.425" y="95.525" type="curve"/>
    </contour>
    <contour>
      <point x="76.425" y="326.45" type="line"/>
      <point x="541.425" y="326.45" type="line"/>
      <point x="541.425" y="415.075" type="line"/>
      <point x="76.425" y="415.075" type="line"/>
    </contour>
  </outline>
</glyph>
<glyph name="gravecomb" format="2">
  <unicode hex="0300"/>
  <anchor x="0.0" y="497.125" name="_top"/>
  <anchor x="0.475" y="639.0" name="top"/>
  <outline>
    <contour>
      <point x="-26.8" y="547.0" type="line"/>
      <point x="28.700000000000003" y="547.0" type="line"/>
      <point x="4.074999999999999" y="706.0" type="line"/>
      <point x="-113.32499999999999" y="706.0" type="line"/>
    </contour>
  </outline>
</glyph>
<glyph name="guilsinglleft" format="2">
  <advance width="354.85"/>
  <unicode hex="2039"/>
  <outline>
    <contour>
      <point x="191.675" y="48.0" type="line"/>
      <point x="301.175" y="48.0" type="line"/>
      <point x="169.175" y="264.375" type="line"/>
      <point x="169.175" y="268.375" type="line"/>
      <point x="301.175" y="477.0" type="line"/>
      <point x="189.675" y="477.0" type="line"/>
      <point x="63.675000000000004" y="263.0" type="line"/>
    </contour>
  </outline>
</glyph>
<glyph name="won" format="2">
  <advance width="944.15"/>
  <unicode hex="20A9"/>
  <outline>
    <contour>
      <point x="225.85000000000002" y="30.0" type="line"/>
      <point x="320.65" y="30.0" type="line"/>
      <point x="446.79999999999995" y="430.75" type="line" smooth="yes"/>
      <point x="463.225" y="483.225"/>
      <point x="468.7" y="506.17499999999995"/>
      <point x="472.225" y="531.7" type="curve"/>
      <point x="476.70000000000005" y="531.7" type="line"/>
      <point x="481.175" y="506.17499999999995"/>
      <point x="487.125" y="483.75"/>
      <point x="503.55" y="430.75" type="curve" smooth="yes"/>
      <point x="624.45" y="30.0" type="line"/>
      <point x="719.25" y="30.0" type="line"/>
      <point x="909.0" y="670.0" type="line"/>
      <point x="795.45" y="670.0" type="line"/>
      <point x="691.375" y="273.5" type="line" smooth="yes"/>
      <point x="677.8499999999999" y="221.02499999999998"/>
      <point x="675.95" y="192.275"/>
      <point x="671.0" y="167.275" type="curve"/>
      <point x="667.4749999999999" y="167.275" type="line"/>
      <point x="663.05" y="192.275"/>
      <point x="660.2" y="220.025"/>
      <point x="644.3" y="273.5" type="curve" smooth="yes"/>
      <point x="526.925" y="670.0" type="line"/>
      <point x="422.9" y="670.0" type="line"/>
      <point x="303.95" y="273.5" type="line" smooth="yes"/>
      <point x="288.0" y="221.5"/>
      <point x="284.15" y="192.275"/>
      <point x="279.725" y="167.275" type="curve"/>
      <point x="276.725" y="167.275" type="line"/>
      <point x="272.29999999999995" y="192.275"/>
      <point x="269.825" y="219.5"/>
      <point x="255.825" y="273.5" type="curve" smooth="yes"/>
      <point x="153.85" y="670.0" type="line"/>
      <point x="38.2" y="670.0" type="line"/>
    </contour>
    <contour>
      <point x="24.25" y="282.55" type="line"/>
      <point x="919.9" y="282.55" type="line"/>
      <point x="919.9" y="344.54999999999995" type="line"/>
      <point x="24.25" y="344.54999999999995" type="line"/>
    </contour>
    <contour>
      <point x="24.25" y="386.9" type="line"/>
      <point x="919.9" y="386.9" type="line"/>
      <point x="919.9" y="448.9" type="line"/>
      <point x="24.25" y="448.9" type="line"/>
    </contour>
  </outline>
</glyph>
<glyph name="euro" format="2">
  <advance width="674.825"/>
  <unicode hex="20AC"/>
  <outline>
    <contour>
      <point x="411.875" y="21.75" type="curve" smooth="yes"/>
      <point x="522.45" y="21.75"/>
      <point x="600.35" y="64.0"/>
      <point x="653.3499999999999" y="128.0" type="curve"/>
      <point x="570.75" y="193.47500000000002" type="line"/>
      <point x="521.625" y="136.4"/>
      <point x="478.1" y="121.30000000000001"/>
      <point x="415.925" y="121.30000000000001" type="curve" smooth="yes"/>
      <point x="320.975" y="121.30000000000001"/>
      <point x="236.2" y="170.225"/>
      <point x="207.64999999999998" y="288.225" type="curve" smooth="yes"/>
      <point x="203.075" y="307.325" type="line"/>
      <point x="196.02499999999998" y="343.525"/>
      <point x="195.02499999999998" y="358.1"/>
      <point x="202.075" y="394.29999999999995" type="curve"/>
      <point x="207.64999999999998" y="414.4" type="line"/>
      <point x="242.675" y="535.075"/>
      <point x="320.975" y="578.7"/>
      <point x="412.4" y="578.7" type="curve" smooth="yes"/>
      <point x="470.0" y="578.7"/>
      <point x="529.625" y="558.825"/>
      <point x="571.625" y="514.825" type="curve"/>
      <point x="634.825" y="589.3" type="line"/>
      <point x="581.3499999999999" y="648.0"/>
      <point x="512.075" y="678.25"/>
      <point x="411.875" y="678.25" type="curve" smooth="yes"/>
      <point x="221.575" y="678.25"/>
      <point x="85.0" y="534.75"/>
      <point x="85.0" y="349.0" type="curve" smooth="yes"/>
      <point x="85.0" y="164.25"/>
      <point x="229.575" y="21.75"/>
    </contour>
    <contour>
      <point x="-9.899999999999999" y="240.14999999999998" type="line"/>
      <point x="392.45" y="240.14999999999998" type="line"/>
      <point x="444.725" y="318.325" type="line"/>
      <point x="43.375" y="318.325" type="line"/>
    </contour>
    <contour>
      <point x="-13.375" y="381.67499999999995" type="line"/>
      <point x="484.975" y="381.67499999999995" type="line"/>
      <point x="538.25" y="459.85" type="line"/>
      <point x="40.900000000000006" y="459.85" type="line"/>
    </contour>
  </outline>
</glyph>
<glyph name="manat" format="2">
  <advance width="534.075"/>
  <unicode hex="20BC"/>
  <outline>
    <contour>
      <point x="48.575" y="30.0" type="line"/>
      <point x="154.175" y="30.0" type="line"/>
      <point x="154.175" y="197.875" type="line" smooth="yes"/>
      <point x="154.175" y="290.5"/>
      <point x="194.8" y="334.75"/>
      <point x="268.675" y="334.75" type="curve" smooth="yes"/>
      <point x="343.975" y="334.75"/>
      <point x="379.375" y="290.5"/>
      <point x="379.375" y="197.875" type="curve" smooth="yes"/>
      <point x="379.375" y="30.0" type="line"/>
      <point x="485.5" y="30.0" type="line"/>
      <point x="485.5" y="213.55" type="line" smooth="yes"/>
      <point x="485.5" y="349.275"/>
      <point x="406.025" y="429.125"/>
      <point x="267.725" y="429.125" type="curve" smooth="yes"/>
      <point x="130.375" y="429.125"/>
      <point x="48.575" y="349.275"/>
      <point x="48.575" y="213.55" type="curve" smooth="yes"/>
    </contour>
    <contour>
      <point x="228.97500000000002" y="30.0" type="line"/>
      <point x="307.15" y="30.0" type="line"/>
      <point x="307.15" y="497.125" type="line"/>
      <point x="228.97500000000002" y="497.125" type="line"/>
    </contour>
  </outline>
</glyph>
<glyph name="blackSmallSquare" format="2">
  <advance width="376.0"/>
  <unicode hex="25AA"/>
  <outline>
    <contour>
      <point x="90.0" y="266.45" type="line"/>
      <point x="286.0" y="266.45" type="line"/>
      <point x="286.0" y="459.54999999999995" type="line"/>
      <point x="90.0" y="459.54999999999995" type="line"/>
    </contour>
  </outline>
</glyph>
<glyph name="lozenge" format="2">
  <advance width="562.75"/>
  <unicode hex="25CA"/>
  <outline>
    <contour>
      <point x="242.125" y="0.0" type="line"/>
      <point x="320.625" y="0.0" type="line"/>
      <point x="525.375" y="353.04999999999995" type="line"/>
      <point x="320.625" y="700.0" type="line"/>
      <point x="242.125" y="700.0" type="line"/>
      <point x="37.375" y="351.15" type="line"/>
    </contour>
    <contour>
      <point x="281.375" y="99.925" type="line"/>
      <point x="280.375" y="105.975"/>
      <point x="276.85" y="112.025"/>
      <point x="274.325" y="116.55000000000001" type="curve" smooth="yes"/>
      <point x="145.975" y="353.525" type="line"/>
      <point x="272.9" y="584.45" type="line" smooth="yes"/>
      <point x="275.42499999999995" y="588.975"/>
      <point x="277.425" y="595.0250000000001"/>
      <point x="278.95000000000005" y="601.075" type="curve"/>
      <point x="282.475" y="601.075" type="line"/>
      <point x="283.475" y="595.0250000000001"/>
      <point x="286.0" y="588.975"/>
      <point x="288.525" y="584.45" type="curve" smooth="yes"/>
      <point x="416.29999999999995" y="350.67499999999995" type="line"/>
      <point x="289.95" y="116.55000000000001" type="line" smooth="yes"/>
      <point x="287.425" y="112.025"/>
      <point x="284.9" y="105.975"/>
      <point x="283.9" y="99.925" type="curve"/>
    </contour>
  </outline>
</glyph>
<glyph name="whiteSmallStar" format="2">
  <advance width="480.0"/>
  <unicode hex="2B52"/>
  <outline>
    <contour>
      <point x="116.0" y="199.0" type="line"/>
      <point x="239.0" y="289.0" type="line"/>
      <point x="363.0" y="199.0" type="line"/>
      <point x="316.0" y="344.0" type="line"/>
      <point x="440.0" y="434.0" type="line"/>
      <point x="287.0" y="434.0" type="line"/>
      <point x="239.0" y="579.0" type="line"/>
      <point x="192.0" y="434.0" type="line"/>
      <point x="40.0" y="434.0" type="line"/>
      <point x="163.0" y="344.0" type="line"/>
    </contour>
    <contour>
      <point x="174.55" y="279.45" type="line"/>
      <point x="202.075" y="357.425" type="line"/>
      <point x="133.77499999999998" y="403.35" type="line"/>
      <point x="216.225" y="401.45" type="line"/>
      <point x="239.0" y="480.85" type="line"/>
      <point x="263.25" y="401.45" type="line"/>
      <point x="345.225" y="403.35" type="line"/>
      <point x="276.925" y="357.425" type="line"/>
      <point x="305.4" y="279.45" type="line"/>
      <point x="239.0" y="330.6" type="line"/>
    </contour>
  </outline>
</glyph>
<glyph name="fi" format="2">
  <advance width="613.65"/>
  <unicode hex="FB01"/>
  <anchor x="166.875" y="0.0" name="bottom_1"/>
  <anchor x="259.57500000000005" y="740.0" name="top_1"/>
  <anchor x="489.825" y="0.0" name="bottom_2"/>
  <anchor x="459.9" y="0.0" name="ogonek_2"/>
  <anchor x="489.825" y="497.125" name="top_2"/>
  <anchor x="392.0" y="0.0" name="caret_1"/>
  <outline>
    <contour>
      <point x="18.9" y="402.32500000000005" type="line"/>
      <point x="532.65" y="402.32500000000005" type="line"/>
      <point x="542.65" y="497.125" type="line"/>
      <point x="18.9" y="497.125" type="line"/>
    </contour>
    <component base="f"/>
    <component base="i" xOffset="365.475"/>
  </outline>
</glyph>
<glyph name="circumflexcomb.001" format="2">
  <anchor x="0.0" y="492.925" name="_top"/>
  <anchor x="0.0" y="685.825" name="top"/>
  <outline>
    <contour>
      <point x="-142.45" y="548.0" type="line"/>
      <point x="-50.35" y="548.0" type="line"/>
      <point x="0.525" y="650.2249999999999" type="line"/>
      <point x="3.0" y="650.2249999999999" type="line"/>
      <point x="52.35" y="548.0" type="line"/>
      <point x="142.45" y="548.0" type="line"/>
      <point x="40.775" y="707.0" type="line"/>
      <point x="-37.25" y="707.0" type="line"/>
    </contour>
  </outline>
</glyph>
<glyph name="five.numr" format="2">
  <advance width="337.125"/>
  <outline>
    <contour>
      <point x="153.2" y="308.0" type="curve" smooth="yes"/>
      <point x="231.475" y="308.0"/>
      <point x="294.225" y="361.95"/>
      <point x="294.225" y="437.375" type="curve" smooth="yes"/>
      <point x="294.225" y="502.32500000000005"/>
      <point x="244.075" y="563.075"/>
      <point x="171.325" y="563.075" type="curve" smooth="yes"/>
      <point x="158.225" y="563.075"/>
      <point x="146.5" y="561.025"/>
      <point x="135.925" y="557.5" type="curve"/>
      <point x="134.4" y="558.5" type="line"/>
      <point x="157.975" y="673.3499999999999" type="line"/>
      <point x="114.9" y="639.65" type="line"/>
      <point x="267.9" y="639.65" type="line"/>
      <point x="267.9" y="700.0" type="line"/>
      <point x="97.1" y="700.0" type="line"/>
      <point x="48.775000000000006" y="472.0" type="line"/>
      <point x="82.775" y="492.57500000000005"/>
      <point x="106.05000000000001" y="502.15"/>
      <point x="150.2" y="502.15" type="curve" smooth="yes"/>
      <point x="195.725" y="502.15"/>
      <point x="225.60000000000002" y="476.05"/>
      <point x="225.60000000000002" y="436.32500000000005" type="curve" smooth="yes"/>
      <point x="225.60000000000002" y="394.925"/>
      <point x="193.775" y="369.29999999999995"/>
      <point x="153.725" y="369.29999999999995" type="curve" smooth="yes"/>
      <point x="118.57499999999999" y="369.29999999999995"/>
      <point x="95.425" y="382.4"/>
      <point x="70.9" y="407.975" type="curve"/>
      <point x="30.25" y="361.0" type="line"/>
      <point x="62.525000000000006" y="324.04999999999995"/>
      <point x="104.25" y="308.0"/>
    </contour>
  </outline>
</glyph>
<glyph name="guarani.tf" format="2">
  <advance width="596.0"/>
  <outline>
    <contour>
      <point x="305.57500000000005" y="16.725" type="curve" smooth="yes"/>
      <point x="484.075" y="16.725"/>
      <point x="590.325" y="146.15"/>
      <point x="590.325" y="325.625" type="curve" smooth="yes"/>
      <point x="590.325" y="344.0"/>
      <point x="588.85" y="366.17499999999995"/>
      <point x="586.375" y="380.975" type="curve"/>
      <point x="273.575" y="380.975" type="line"/>
      <point x="273.575" y="293.225" type="line"/>
      <point x="512.4" y="293.225" type="line"/>
      <point x="482.825" y="308.425" type="line"/>
      <point x="477.5" y="189.375"/>
      <point x="413.475" y="114.275"/>
      <point x="307.525" y="114.275" type="curve" smooth="yes"/>
      <point x="192.75" y="114.275"/>
      <point x="116.69999999999999" y="216.875"/>
      <point x="116.69999999999999" y="351.625" type="curve" smooth="yes"/>
      <point x="116.69999999999999" y="486.375"/>
      <point x="192.3" y="590.5"/>
      <point x="307.525" y="590.5" type="curve" smooth="yes"/>
      <point x="375.3" y="590.5"/>
      <point x="408.475" y="570.775"/>
      <point x="449.425" y="518.575" type="curve"/>
      <point x="527.95" y="582.15" type="line"/>
      <point x="465.1" y="659.05"/>
      <point x="406.2" y="688.05"/>
      <point x="305.57500000000005" y="688.05" type="curve" smooth="yes"/>
      <point x="132.3" y="688.05"/>
      <point x="8.575" y="539.725"/>
      <point x="8.575" y="351.625" type="curve" smooth="yes"/>
      <point x="8.575" y="164.05"/>
      <point x="134.39999999999998" y="16.725"/>
    </contour>
    <contour>
      <point x="276.3" y="662.5" type="line"/>
      <point x="353.425" y="662.5" type="line"/>
      <point x="353.425" y="775.0" type="line"/>
      <point x="276.3" y="775.0" type="line"/>
    </contour>
    <contour>
      <point x="276.3" y="-69.0" type="line"/>
      <point x="353.425" y="-69.0" type="line"/>
      <point x="353.425" y="43.5" type="line"/>
      <point x="276.3" y="43.5" type="line"/>
    </contour>
  </outline>
</glyph>
<glyph name="naira.tf" format="2">
  <advance width="596.0"/>
  <outline>
    <contour>
      <point x="70.125" y="30.0" type="line"/>
      <point x="174.4" y="30.0" type="line"/>
      <point x="174.4" y="360.0" type="line" smooth="yes"/>
      <point x="174.4" y="411.675"/>
      <point x="172.4" y="452.84999999999997"/>
      <point x="168.39999999999998" y="483.82500000000005" type="curve"/>
      <point x="171.39999999999998" y="483.82500000000005" type="line"/>
      <point x="176.825" y="468.075"/>
      <point x="194.925" y="441.575"/>
      <point x="210.5" y="414.95000000000005" type="curve" smooth="yes"/>
      <point x="436.875" y="30.0" type="line"/>
      <point x="525.875" y="30.0" type="line"/>
      <point x="525.875" y="670.0" type="line"/>
      <point x="421.6" y="670.0" type="line"/>
      <point x="421.6" y="346.525" type="line" smooth="yes"/>
      <point x="421.6" y="278.57500000000005"/>
      <point x="424.54999999999995" y="242.97500000000002"/>
      <point x="429.075" y="219.225" type="curve"/>
      <point x="425.075" y="219.225" type="line"/>
      <point x="420.175" y="235.45"/>
      <point x="408.07500000000005" y="268.15"/>
      <point x="393.07500000000005" y="293.625" type="curve" smooth="yes"/>
      <point x="168.35000000000002" y="670.0" type="line"/>
      <point x="70.125" y="670.0" type="line"/>
    </contour>
    <contour>
      <point x="3.3249999999999997" y="320.67499999999995" type="line"/>
      <point x="592.675" y="320.67499999999995" type="line"/>
      <point x="592.675" y="398.85" type="line"/>
      <point x="3.3249999999999997" y="398.85" type="line"/>
    </contour>
  </outline>
</glyph>
<glyph name="rupeeIndian.tf" format="2">
  <advance width="596.0"/>
  <outline>
    <contour>
      <point x="327.35" y="25.25" type="line"/>
      <point x="458.75" y="25.25" type="line"/>
      <point x="237.175" y="309.625" type="line"/>
      <point x="246.475" y="263.75" type="line"/>
      <point x="363.825" y="270.075"/>
      <point x="458.75" y="343.20000000000005"/>
      <point x="458.75" y="466.82500000000005" type="curve" smooth="yes"/>
      <point x="458.75" y="596.45"/>
      <point x="381.7" y="674.75"/>
      <point x="246.14999999999998" y="674.75" type="curve" smooth="yes"/>
      <point x="31.05" y="674.75" type="line"/>
      <point x="31.05" y="570.725" type="line"/>
      <point x="220.375" y="570.725" type="line" smooth="yes"/>
      <point x="314.475" y="570.725"/>
      <point x="346.15" y="539.675"/>
      <point x="346.15" y="466.35" type="curve" smooth="yes"/>
      <point x="346.15" y="390.975"/>
      <point x="298.725" y="359.45"/>
      <point x="204.625" y="359.45" type="curve" smooth="yes"/>
      <point x="31.05" y="359.45" type="line"/>
      <point x="31.05" y="257.8" type="line"/>
      <point x="141.425" y="257.8" type="line"/>
    </contour>
    <contour>
      <point x="28.2" y="425.975" type="line"/>
      <point x="499.85" y="425.975" type="line"/>
      <point x="553.6" y="504.15" type="line"/>
      <point x="81.94999999999999" y="504.15" type="line"/>
    </contour>
    <contour>
      <point x="172.525" y="596.05" type="line"/>
      <point x="525.1" y="596.05" type="line"/>
      <point x="578.85" y="674.225" type="line"/>
      <point x="172.525" y="674.225" type="line"/>
    </contour>
  </outline>
</glyph>
<glyph name="t.ss10" format="2">
  <advance width="364.65"/>
  <anchor x="183.35" y="312.95" name="bar"/>
  <anchor x="177.625" y="0.0" name="bottom"/>
  <anchor x="178.575" y="276.0" name="center"/>
  <anchor x="177.625" y="610.0" name="top"/>
  <anchor x="287.70000000000005" y="740.0" name="topright"/>
  <outline>
    <contour>
      <point x="124.325" y="0.0" type="line"/>
      <point x="230.45" y="0.0" type="line"/>
      <point x="230.45" y="610.0" type="line"/>
      <point x="124.325" y="610.0" type="line"/>
    </contour>
    <contour>
      <point x="18.425" y="402.32500000000005" type="line"/>
      <point x="346.225" y="402.32500000000005" type="line"/>
      <point x="346.225" y="497.125" type="line"/>
      <point x="18.425" y="497.125" type="line"/>
    </contour>
  </outline>
</glyph>
